<svg id="visual" xmlns="http://www.w3.org/2000/svg" xmlns:xlink="http://www.w3.org/1999/xlink" version="1.1"><rect x="0" y="0" width="100%" height="100%" fill="#1f2938"></rect><defs><linearGradient id="grad1_0" x1="33.3%" y1="0%" x2="100%" y2="100%"><stop offset="20%" stop-color="#1f2938" stop-opacity="1"></stop><stop offset="80%" stop-color="#1f2938" stop-opacity="1"></stop></linearGradient></defs><defs><linearGradient id="grad2_0" x1="0%" y1="0%" x2="66.7%" y2="100%"><stop offset="20%" stop-color="#1f2938" stop-opacity="1"></stop><stop offset="80%" stop-color="#1f2938" stop-opacity="1"></stop></linearGradient></defs><g transform="translate(900, 0)"><path d="M0 81.1C-9.2 70.6 -18.5 60 -31.5 54.6C-44.5 49.1 -61.4 48.8 -70.3 40.6C-79.2 32.3 -80.1 16.2 -81.1 0L0 0Z" fill="#00000e"></path></g><g transform="translate(0, 600)"><path d="M0 -81.1C15.1 -79.5 30.2 -78 40.6 -70.3C50.9 -62.6 56.4 -48.7 62.4 -36C68.3 -23.3 74.7 -11.6 81.1 0L0 0Z" fill="#00000e"></path></g></svg>