<svg id="visual" viewBox="0 0 960 540" width="960" height="540" xmlns="http://www.w3.org/2000/svg" xmlns:xlink="http://www.w3.org/1999/xlink" version="1.1"><path d="M0 483L60 483L60 494L120 494L120 474L180 474L180 493L240 493L240 475L300 475L300 466L360 466L360 493L420 493L420 473L480 473L480 461L540 461L540 510L600 510L600 463L660 463L660 497L720 497L720 497L780 497L780 487L840 487L840 500L900 500L900 495L960 495L960 501L960 541L960 541L900 541L900 541L840 541L840 541L780 541L780 541L720 541L720 541L660 541L660 541L600 541L600 541L540 541L540 541L480 541L480 541L420 541L420 541L360 541L360 541L300 541L300 541L240 541L240 541L180 541L180 541L120 541L120 541L60 541L60 541L0 541Z" fill="#00000e" stroke-linecap="square" stroke-linejoin="miter"></path></svg>