<svg id="visual"  viewBox="0 0 960 540" class="svg-path" width="960" height="540" xmlns="http://www.w3.org/2000/svg" xmlns:xlink="http://www.w3.org/1999/xlink" version="1.1">
  <path 
    d="M914 540L914 521L919 521L919 501L920 501L920 482L900 482L900 463L917 463L917 444L900 444L900 424L903 424L903 405L899 405L899 386L899 386L899 366L908 366L908 347L918 347L918 328L906 328L906 309L919 309L919 289L913 289L913 270L901 270L901 251L914 251L914 231L919 231L919 212L903 212L903 193L910 193L910 174L925 174L925 154L910 154L910 135L919 135L919 116L915 116L915 96L919 96L919 77L913 77L913 58L915 58L915 39L910 39L910 19L923 19L923 0" 
    fill="none" 
    stroke-linecap="square" 
    stroke-linejoin="miter" 
    stroke=" #00000e"
    stroke-width="5"
    transform="translate(-890, 0)" 
    
  ></path>
  
</svg>
