<svg id="visual" viewBox="0 0 960 540" width="960" height="540" xmlns="http://www.w3.org/2000/svg" xmlns:xlink="http://www.w3.org/1999/xlink" version="1.1"><path d="M0 483L60 483L60 494L120 494L120 474L180 474L180 493L240 493L240 475L300 475L300 466L360 466L360 493L420 493L420 473L480 473L480 461L540 461L540 510L600 510L600 463L660 463L660 497L720 497L720 497L780 497L780 487L840 487L840 500L900 500L900 495L960 495" fill="none" stroke-linecap="square" stroke-linejoin="miter" stroke="#00000e" stroke-width="5"></path></svg>